<?xml version="1.0" encoding="utf-8"?>
<!-- Generator: Adobe Illustrator 21.1.0, SVG Export Plug-In . SVG Version: 6.00 Build 0)  -->
<svg version="1.1" id="Layer_1" xmlns="http://www.w3.org/2000/svg" xmlns:xlink="http://www.w3.org/1999/xlink" x="0px" y="0px"
	 viewBox="0 0 1366 768" style="enable-background:new 0 0 1366 768;" xml:space="preserve">
<style type="text/css">
	.st0{fill:#F2D310;}
	.st1{fill:#EC1C24;}
	.st2{fill:none;stroke:#F3D30F;stroke-width:25;stroke-miterlimit:10;}
	.st3{opacity:0.67;fill:none;stroke:#FFFFFF;stroke-width:13;stroke-miterlimit:10;}
	.st4{fill:none;stroke:#EC1C24;stroke-width:23;stroke-miterlimit:10;}
	.st5{fill:none;stroke:#BE1E2D;stroke-width:23;stroke-miterlimit:10;}
	.st6{fill:#F3D30F;}
</style>
<path class="st0" d="M371,460.6V280.6h41.6v143.5h87.2v36.5H371z"/>
<path class="st0" d="M589.4,280.6h37.5l65.7,180.1H650l-13.9-40.3h-56l-13.7,40.3h-42.6L589.4,280.6z M629.2,391.6l-21-63.7
	l-21.6,63.7H629.2z"/>
<path class="st0" d="M714.4,369.1c0-10.8,2-21.6,6.1-32.3c4.1-10.7,10-20.3,17.8-28.8c7.8-8.5,17.2-15.3,28.4-20.5
	c11.2-5.2,23.8-7.9,38-7.9c16.9,0,31.6,3.6,44,10.9c12.4,7.3,21.7,16.7,27.8,28.4l-32,22.3c-2-4.7-4.6-8.7-7.7-11.8
	c-3.1-3.1-6.6-5.7-10.3-7.6c-3.7-1.9-7.5-3.3-11.4-4.1c-3.9-0.8-7.7-1.1-11.4-1.1c-7.9,0-14.9,1.6-20.8,4.8
	c-5.9,3.2-10.8,7.4-14.7,12.4c-3.9,5.1-6.8,10.8-8.6,17.2c-1.9,6.4-2.8,12.9-2.8,19.5c0,7.1,1.1,13.9,3.3,20.5
	c2.2,6.6,5.4,12.4,9.5,17.5c4.1,5.1,9.1,9.1,15,12c5.8,3,12.4,4.4,19.7,4.4c3.7,0,7.6-0.5,11.5-1.4c4-0.9,7.8-2.4,11.4-4.3
	c3.6-1.9,7-4.5,10-7.6c3-3.1,5.5-7,7.4-11.5l34,20c-2.7,6.6-6.7,12.5-12,17.8c-5.3,5.2-11.5,9.6-18.4,13.2
	c-6.9,3.6-14.3,6.3-22.1,8.1c-7.8,1.9-15.4,2.8-22.8,2.8c-13,0-25-2.7-35.9-8c-10.9-5.3-20.3-12.4-28.2-21.2
	c-7.9-8.8-13.9-18.8-18.3-29.9C716.6,391.9,714.4,380.6,714.4,369.1z"/>
<path class="st1" d="M979.9,463.2c-10.8,0-20.5-1.9-29.2-5.6c-8.6-3.7-15.9-8.8-21.9-15.1c-6-6.3-10.6-13.7-13.8-21.9
	c-3.2-8.3-4.8-17-4.8-26.1c0-9.3,1.6-18.1,4.8-26.4c3.2-8.3,7.8-15.6,13.8-21.9c6-6.3,13.3-11.4,21.9-15.1
	c8.6-3.7,18.3-5.6,29.2-5.6c10.8,0,20.5,1.9,29,5.6c8.5,3.7,15.8,8.7,21.8,15.1c6,6.3,10.6,13.7,13.8,21.9
	c3.2,8.3,4.8,17.1,4.8,26.4c0,9.1-1.6,17.8-4.8,26.1c-3.2,8.3-7.8,15.6-13.7,21.9c-5.9,6.3-13.2,11.4-21.8,15.1
	C1000.5,461.3,990.8,463.2,979.9,463.2z M945.2,394.4c0,5.9,0.9,11.3,2.7,16.1c1.8,4.8,4.2,9,7.4,12.6c3.1,3.6,6.8,6.3,11,8.2
	c4.2,1.9,8.8,2.9,13.7,2.9c4.9,0,9.5-1,13.7-2.9c4.2-1.9,7.9-4.7,11-8.2c3.1-3.6,5.6-7.8,7.4-12.7c1.8-4.9,2.7-10.3,2.7-16.2
	c0-5.7-0.9-11.1-2.7-16c-1.8-4.9-4.2-9.1-7.4-12.7c-3.1-3.6-6.8-6.3-11-8.2c-4.2-1.9-8.8-2.9-13.7-2.9c-4.9,0-9.5,1-13.7,3
	c-4.2,2-7.9,4.8-11,8.4c-3.1,3.6-5.6,7.8-7.4,12.7C946.1,383.4,945.2,388.7,945.2,394.4z"/>
<path class="st1" d="M1093.3,309.2v-33.7h34v33.7H1093.3z M1093.3,460.6V327.7h34v132.9H1093.3z"/>
<path class="st1" d="M1178.8,275.5h34V418c0,4.9,1.2,8.7,3.6,11.4c2.4,2.7,5.7,4.1,10.1,4.1c2,0,4.3-0.3,6.7-1
	c2.4-0.7,4.8-1.5,7-2.5l4.6,25.9c-4.6,2.2-9.9,3.9-16,5.1c-6.1,1.2-11.6,1.8-16.5,1.8c-10.7,0-18.9-2.8-24.7-8.5
	c-5.8-5.7-8.7-13.7-8.7-24.2V275.5z"/>
<polygon class="st2" points="193.2,196.9 288.2,395.9 98.2,395.9 "/>
<path class="st2" d="M289.4,517.5c-1.7,2.4-3.5,4.6-3.5,4.6c-3.8,4.7-16.2,20-36.3,30.5c-6,3.1-27.3,12.6-53.7,12.6
	c-66.6,0-120.7-54-120.7-120.7h242"/>
<path class="st3" d="M188.5,377.9"/>
<path class="st3" d="M170.9,415.1"/>
<path class="st4" d="M244.5,434.2c17.6,37.1-8.2,80.9-49.2,82.2c-0.7,0-1.4,0-2.1,0c-1.4,0-2.9,0-4.3-0.1
	c-40-2.8-64.3-45.6-47.1-81.9l51.4-108.6L244.5,434.2z"/>
<path class="st5" d="M195,516.2"/>
<rect x="203.5" y="383.5" class="st6" width="64" height="25"/>
<rect x="112" y="432" class="st6" width="61" height="25"/>
</svg>
